<?xml version="1.0" standalone="no"?>
<!DOCTYPE svg PUBLIC "-//W3C//DTD SVG 20010904//EN"
 "http://www.w3.org/TR/2001/REC-SVG-20010904/DTD/svg10.dtd">
<svg version="1.0" xmlns="http://www.w3.org/2000/svg"
 width="700.000000pt" height="700.000000pt" viewBox="0 0 700.000000 700.000000"
 preserveAspectRatio="xMidYMid meet">
<metadata>
Created by potrace 1.14, written by Peter Selinger 2001-2017
</metadata>
<g transform="translate(0.000000,700.000000) scale(0.100000,-0.100000)"
fill="#000000" stroke="none">
<path d="M3539 5916 c-2 -2 -37 -7 -78 -10 -450 -42 -933 -245 -1307 -551 -90
-73 -299 -289 -373 -385 -383 -496 -562 -1086 -518 -1710 4 -52 9 -104 11
-115 2 -11 7 -42 10 -70 23 -181 101 -444 189 -639 101 -225 202 -384 394
-617 26 -31 184 -189 219 -219 109 -93 149 -124 224 -177 202 -140 413 -247
630 -319 621 -206 1283 -164 1870 119 549 264 1005 759 1223 1327 117 305 167
569 168 890 1 157 -5 235 -27 385 -27 180 -93 411 -171 594 -258 607 -760
1093 -1380 1335 -116 45 -291 98 -373 112 -14 2 -48 9 -76 15 -116 23 -280 36
-450 37 -100 1 -183 0 -185 -2z m421 -170 c441 -46 849 -212 1198 -486 219
-172 432 -417 569 -655 113 -195 239 -526 267 -700 12 -75 18 -112 22 -135 25
-134 25 -464 0 -647 -48 -344 -187 -698 -385 -983 -338 -485 -833 -820 -1396
-944 -202 -45 -268 -51 -535 -50 -211 1 -286 8 -475 48 -450 94 -900 360
-1222 722 -75 84 -193 238 -193 252 0 6 -3 12 -7 14 -15 6 -112 174 -157 271
-96 204 -169 436 -192 603 -3 27 -8 52 -10 56 -25 41 -25 555 1 678 2 13 7 42
11 65 16 111 89 361 135 462 10 24 19 46 19 49 0 12 113 229 153 293 116 187
361 469 492 566 22 17 49 38 60 49 52 48 274 184 400 246 171 84 419 168 565
194 14 2 41 7 60 10 77 13 98 16 180 22 47 4 86 7 87 9 6 4 293 -3 353 -9z"/>
<path d="M4015 5060 c-22 -5 -56 -11 -75 -15 -174 -31 -499 -122 -625 -174
-84 -35 -247 -119 -298 -154 -96 -65 -189 -164 -228 -243 -32 -64 -34 -75 -34
-169 0 -89 3 -106 28 -157 26 -53 167 -261 192 -283 58 -51 227 -299 303 -445
98 -188 172 -374 156 -390 -6 -6 -46 -21 -89 -34 -90 -28 -76 -33 33 -12 67
13 73 12 82 -4 12 -23 45 -145 69 -261 36 -172 45 -244 44 -369 -1 -125 -15
-183 -53 -221 -25 -26 -33 -28 -75 -23 -52 6 -207 82 -288 141 -63 46 -254
200 -283 228 -11 11 -59 54 -105 95 -101 91 -146 134 -313 298 -71 70 -126
120 -121 112 9 -15 105 -140 115 -150 3 -3 23 -27 45 -55 200 -252 508 -562
669 -673 303 -208 487 -169 542 114 35 182 7 462 -75 749 l-18 60 158 38 c87
21 162 38 166 38 4 -1 8 -15 9 -33 1 -18 5 -112 8 -208 4 -96 9 -197 11 -225
2 -27 7 -108 10 -180 4 -71 8 -146 10 -165 2 -19 5 -65 6 -102 3 -66 11 -84
15 -30 1 15 4 65 8 112 3 47 8 135 11 195 3 61 8 135 10 165 5 59 17 370 19
458 l1 52 80 26 c425 140 740 333 874 534 105 158 121 349 39 471 -69 102
-184 138 -368 115 -72 -9 -256 -65 -338 -102 -29 -13 -55 -24 -58 -24 -9 0
-228 -111 -295 -150 l-66 -39 3 -128 c1 -70 4 -245 6 -388 l3 -259 -160 -58
c-88 -31 -163 -57 -168 -58 -8 0 -8 0 -58 130 -97 257 -287 571 -439 730 -9 8
-42 49 -75 90 -33 41 -62 77 -65 80 -13 13 -60 91 -73 122 -21 51 -15 144 14
202 99 199 413 376 1034 582 147 49 172 64 70 44z m877 -955 c90 -66 43 -294
-87 -420 -74 -72 -231 -185 -345 -248 -85 -48 -381 -187 -396 -187 -2 0 -2 60
1 133 2 72 5 213 7 311 2 135 6 182 16 192 7 8 39 26 70 40 31 15 91 42 132
61 209 97 368 142 500 139 58 -1 81 -6 102 -21z"/>
</g>
</svg>
