<svg id="Capa_2" data-name="Capa 2" xmlns="http://www.w3.org/2000/svg" viewBox="0 0 858.29 324.27"><path d="M52.5,155.76a8.07,8.07,0,0,1-3.85-.87,5.74,5.74,0,0,1-2.45-2.45,4.12,4.12,0,0,1-.43-1.86,2.9,2.9,0,0,1,.61-1.93,4.48,4.48,0,0,1,.78-.7,5.15,5.15,0,0,1,1.43-.69,8.06,8.06,0,0,1,2.13-.38,11.36,11.36,0,0,1,2.82.2,22.31,22.31,0,0,1,4.52,1.34,40.13,40.13,0,0,0,4.28,1.52,5.26,5.26,0,0,0,.41-.35,4.29,4.29,0,0,1,.47-.41,11.58,11.58,0,0,0,2-2.51,12.94,12.94,0,0,0,1.28-3,8.85,8.85,0,0,0,.32-3.08,5.68,5.68,0,0,0-.93-2.74,6,6,0,0,0-2.57-2.25,9.58,9.58,0,0,0-3.17-.78,19.53,19.53,0,0,0-3.41.06c-1.16.11-2.23.19-3.2.23-2.45.15-4.84.41-7.17.76s-4.6.72-6.82,1.1q-5.18.88-10.11,2.07t-9.73,2.54q-4.8,1.33-9.49,2.71T.76,146.91L0,144.46q4.95-1.34,9.82-2.74t9.7-2.74q4.83-1.33,9.73-2.5t9.85-2q3.66-.65,7.16-1.17t7-.75l4.14-.24a19,19,0,0,1,4,.18A11.48,11.48,0,0,1,65,133.62,8.47,8.47,0,0,1,69.28,140a11,11,0,0,1-.41,4.25,14.25,14.25,0,0,1-1.49,3.65A13.25,13.25,0,0,1,65,151a42.9,42.9,0,0,0,5.45,1.46,29.51,29.51,0,0,0,6.73.47,50.9,50.9,0,0,0,8.1-1c3-.59,6-1.28,9.12-2.1s6.24-1.71,9.35-2.68,6.06-1.87,8.85-2.68l.76,2.45-9.06,2.79q-4.69,1.45-9.38,2.71c-3.13.84-6.19,1.54-9.2,2.1a55.77,55.77,0,0,1-8.48,1,31.53,31.53,0,0,1-8.1-.7,53.21,53.21,0,0,1-6.41-1.92A13.8,13.8,0,0,1,58.32,155a25.46,25.46,0,0,1-5.65.75Zm-4.2-4.6a1.49,1.49,0,0,0,.58,1.11,4.3,4.3,0,0,0,1.2.64,4.89,4.89,0,0,0,1.37.26l1.16,0a26.28,26.28,0,0,0,4.08-.38,10.07,10.07,0,0,0,3.15-1.14c-1.13-.42-2.25-.83-3.35-1.22a20.06,20.06,0,0,0-3.41-.87c-.35-.08-.81-.16-1.37-.24a7.45,7.45,0,0,0-1.63,0,2.56,2.56,0,0,0-1.31.5A1.47,1.47,0,0,0,48.3,151.16Z"/><path d="M225.89,146.91l-9.41,2.71q-4.8,1.37-9.47,2.53t-9,2a78.79,78.79,0,0,1-8.1,1.22,2.59,2.59,0,0,1-.52.06h-.53a10.83,10.83,0,0,1-4-.76,11.35,11.35,0,0,1-3.46-2.09,10.77,10.77,0,0,1-1.49-1.72,4.73,4.73,0,0,1-.84-2,7.14,7.14,0,0,1-.7,1.11,11.94,11.94,0,0,1-.88,1,16.83,16.83,0,0,1-5.18,3.24,16.08,16.08,0,0,1-6,1.19,10,10,0,0,1-5.86-1.63,7.7,7.7,0,0,1-3.12-4.49,11,11,0,0,1-.14-5.18,13.94,13.94,0,0,1,2.24-5,7.9,7.9,0,0,1,1.05-1.2c.43-.41.88-.8,1.37-1.19a14.13,14.13,0,0,1,1.54-1.08,15.35,15.35,0,0,1,1.58-.84c-4.12.42-8.22,1-12.3,1.77s-8.13,1.63-12.15,2.62-8,2-11.94,3.18-7.8,2.25-11.57,3.38c-.62.19-1.23.38-1.83.55s-1.22.36-1.84.56l-.75-2.45,1.89-.55c.6-.18,1.21-.36,1.83-.56q6.7-2,13.29-3.84t13.34-3.38q6.77-1.51,13.81-2.54a141.26,141.26,0,0,1,14.68-1.31h.7a9.91,9.91,0,0,1,6.35,2,8,8,0,0,1,2.86,4.49l1.45.35c-.07.19-.14.41-.2.64l-.2.76c-.28.81-.55,1.76-.82,2.82a13.42,13.42,0,0,0-.41,3.29,4.58,4.58,0,0,0,.64,2.51,10.08,10.08,0,0,0,1.29,1.63,8.29,8.29,0,0,0,3.05,1.75,8.4,8.4,0,0,0,3.47.41,77,77,0,0,0,8-1.23q4.32-.87,8.92-2c3.07-.77,6.18-1.61,9.35-2.5s6.26-1.79,9.29-2.68Zm-50.17,2.27a11.32,11.32,0,0,0,3.21-5.59.66.66,0,0,1,0-.21.6.6,0,0,0,0-.2,10.41,10.41,0,0,0,.11-2.1,6.14,6.14,0,0,0-2.21-4.84,7.47,7.47,0,0,0-4.78-1.39,12.12,12.12,0,0,0-5.53,1.28,17.22,17.22,0,0,0-2.28,1.54,14.52,14.52,0,0,0-2.62,2.68,12.24,12.24,0,0,0-1.89,3.73,8.06,8.06,0,0,0,0,4.57A4.68,4.68,0,0,0,161,150.9a6.18,6.18,0,0,0,1.84,1.28,6.66,6.66,0,0,0,1.92.55,12.7,12.7,0,0,0,1.58.12,13.68,13.68,0,0,0,5.06-1A14.12,14.12,0,0,0,175.72,149.18Z"/><path d="M292.84,155.59a16.21,16.21,0,0,1-3.56-.41,15.3,15.3,0,0,1-3.44-1.22,13.2,13.2,0,0,1-3-2.07,9.88,9.88,0,0,1-2.15-2.95,15.91,15.91,0,0,1-1.23-4.39,33.81,33.81,0,0,1-.29-5.36q.06-2.9.41-6t.87-6.41a63.66,63.66,0,0,1-8.27,4q-4.26,1.68-9,3.38l-3.93,1.42c-1.34.49-2.73,1-4.17,1.55-2.06.81-4.27,1.64-6.64,2.47s-4.81,1.68-7.31,2.54-5,1.69-7.64,2.5-5.11,1.6-7.6,2.33l-.76-2.44c2.49-.74,5-1.51,7.58-2.3s5.1-1.63,7.6-2.48,4.93-1.7,7.28-2.53,4.56-1.67,6.62-2.48c1.39-.54,2.77-1.06,4.13-1.55l4-1.42q5.24-1.86,9.84-3.76a55.37,55.37,0,0,0,8.86-4.63c.35-1.83.79-3.9,1.34-6.21s1.17-4.7,1.89-7.16,1.52-4.93,2.39-7.37,1.81-4.74,2.8-6.88a37.14,37.14,0,0,1,3.17-5.62,13.92,13.92,0,0,1,3.5-3.64,3.21,3.21,0,0,1,2.15-.7,4.4,4.4,0,0,1,1.4.35,4.17,4.17,0,0,1,1.81,2.21,10,10,0,0,1,.64,3.79,35,35,0,0,1-2.1,12.29,38.52,38.52,0,0,1-6.64,11.13,51.21,51.21,0,0,1-4.92,5.24,45.57,45.57,0,0,1-5.1,4.08c0,.2-.07.39-.09.58s-.05.39-.09.59q-.35,2-.75,4.92c-.28,1.92-.47,3.91-.59,6a46,46,0,0,0,.06,6,14.28,14.28,0,0,0,1.17,4.9,7.45,7.45,0,0,0,1.92,2.5,10.28,10.28,0,0,0,2.74,1.69,12.75,12.75,0,0,0,3.17.88,13.11,13.11,0,0,0,3.18.06q2.63-.24,6.06-.73t7.37-1.17c2.62-.44,5.31-.93,8.07-1.45s5.47-1.07,8.13-1.64,5.2-1.14,7.63-1.74,4.61-1.18,6.55-1.72l.76,2.44c-1.94.59-4.15,1.17-6.61,1.75s-5,1.17-7.75,1.75-5.45,1.14-8.25,1.66-5.51,1-8.15,1.46-5.13.83-7.46,1.16-4.37.59-6.12.79l-.7,0Q293.25,155.59,292.84,155.59Zm5.36-67.24a1.27,1.27,0,0,0-.64.29,10.32,10.32,0,0,0-2.68,2.77,36.23,36.23,0,0,0-2.66,4.46,53.42,53.42,0,0,0-2.47,5.68c-.78,2.08-1.53,4.22-2.25,6.44s-1.36,4.44-1.95,6.7-1.09,4.42-1.51,6.52q1.86-1.51,3.7-3.29a46.39,46.39,0,0,0,3.64-4,36.85,36.85,0,0,0,6.23-10.37,32.08,32.08,0,0,0,2-11.42,7.47,7.47,0,0,0-.35-2.51,2,2,0,0,0-.81-1.22A.33.33,0,0,0,298.2,88.35Z"/><path d="M451.31,146.91q-4,1.16-8.27,2.06c-2.87.61-5.83,1.11-8.86,1.52s-6.08.72-9.14.93-6.12.32-9.15.32a39.64,39.64,0,0,1-12.18-1.57c-.11.15-.24.31-.38.47a3.67,3.67,0,0,1-.49.46,16.82,16.82,0,0,1-11.19,4.43,10.08,10.08,0,0,1-5.85-1.63,7.61,7.61,0,0,1-3.12-4.49,11,11,0,0,1-.15-5.21,14,14,0,0,1,2.25-5,8.67,8.67,0,0,1,1.07-1.23,17.79,17.79,0,0,1,3-2.27c.53-.31,1-.56,1.43-.76q-6.18.65-12.29,1.78t-12.15,2.62q-6,1.48-11.94,3.18t-11.63,3.38l-3.67,1-.76-2.39,1.9-.56c.6-.17,1.21-.36,1.83-.55q6.7-2,13.26-3.85t13.22-3.37q6.68-1.51,13.7-2.54a140.18,140.18,0,0,1,14.65-1.31h1.05a9.83,9.83,0,0,1,6.35,1.92,7.47,7.47,0,0,1,2.3,2.92A10.82,10.82,0,0,1,407,141a11.1,11.1,0,0,1-.35,3.58,13.82,13.82,0,0,1-1.39,3.41,41.45,41.45,0,0,0,10.6,1.17q4.42,0,9-.32t9-.91c3-.38,5.85-.87,8.69-1.45s5.53-1.26,8.09-2Zm-59.66,6a14.14,14.14,0,0,0,9.44-3.73.05.05,0,0,0,.06-.06q-5.72-2.85-5.71-8.51a6,6,0,0,1,.32-2,5.78,5.78,0,0,1,.93-1.75,4.61,4.61,0,0,1,1.49-1.25,4,4,0,0,1,1.92-.46,13.41,13.41,0,0,0-1.54-.27,10.63,10.63,0,0,0-1.08-.08,11.72,11.72,0,0,0-5.54,1.34,17.24,17.24,0,0,0-2.27,1.54,14.21,14.21,0,0,0-2.62,2.68,12,12,0,0,0-1.9,3.73,8.15,8.15,0,0,0,0,4.57,4.77,4.77,0,0,0,1.19,2.25,5.94,5.94,0,0,0,1.84,1.28,7,7,0,0,0,1.92.55A12.56,12.56,0,0,0,391.65,152.91Zm6.35-12.3c0,2.88,1.61,5,4.84,6.47a10,10,0,0,0,1.69-5.94,7.78,7.78,0,0,0-.38-2.1,6.87,6.87,0,0,0-.85-1.69,3.45,3.45,0,0,0-1.31-.67,2.56,2.56,0,0,0-1.95.15,3.88,3.88,0,0,0-2,3.78Z"/><path d="M609.68,147q-4.6,1.35-9.41,2.71t-9.47,2.54q-4.66,1.17-9.06,2a80.53,80.53,0,0,1-8.13,1.22,2.49,2.49,0,0,1-.49.06h-.5a11.16,11.16,0,0,1-3.85-.7,10.6,10.6,0,0,1-3.37-2,8.1,8.1,0,0,1-3-6.12q-.06-.58-.09-1.83t0-3.12a8,8,0,0,0-.5-3.18,5.57,5.57,0,0,0-1.72-2.36,9,9,0,0,0-5.47-1.39,13.87,13.87,0,0,0-5.39.9,10.14,10.14,0,0,0-3.56,2.45,12.8,12.8,0,0,0-2.33,3.61,46.86,46.86,0,0,0-1.66,4.46c-.23.81-.51,1.66-.84,2.53s-.66,1.71-1,2.51-.64,1.5-.91,2.12-.48,1.09-.64,1.4L536,153.78c.47-1,1-2.25,1.69-3.84a31.41,31.41,0,0,0,1.57-4.93,14.37,14.37,0,0,0,.32-4.89,5.68,5.68,0,0,0-2.07-3.88,9,9,0,0,0-5.47-1.39,13.91,13.91,0,0,0-5.39.9,10.12,10.12,0,0,0-3.53,2.42,12.6,12.6,0,0,0-2.3,3.61c-.6,1.4-1.15,2.87-1.66,4.43-.23.81-.51,1.67-.84,2.56s-.66,1.73-1,2.51-.64,1.48-.94,2.12-.51,1.12-.67,1.43l-2.27-1.05c.39-.85.79-1.78,1.2-2.8s.79-2,1.16-3.11.68-2.13.93-3.18a19.32,19.32,0,0,0,.5-2.91,6.78,6.78,0,0,0-.5-3.18,5.51,5.51,0,0,0-1.77-2.3,6.26,6.26,0,0,0-2.33-1.13,9.36,9.36,0,0,0-3.09-.27,141.69,141.69,0,0,0-14.51,1.31q-7,1-13.72,2.51t-13.29,3.35q-6.54,1.86-13.25,3.85c-.58.19-1.17.36-1.75.52s-1.14.33-1.69.52l-.76-2.44c.59-.2,1.17-.37,1.75-.53s1.15-.31,1.69-.46q6.76-2,13.4-3.88t13.43-3.41q6.8-1.52,13.87-2.56a137.09,137.09,0,0,1,14.77-1.34,11.24,11.24,0,0,1,3.93.44,9.58,9.58,0,0,1,3.12,1.54,7.82,7.82,0,0,1,2.85,4.43,14.41,14.41,0,0,1,1.58-2q4-4.36,11.07-4.37a19.29,19.29,0,0,1,3.55.38,8.22,8.22,0,0,1,3.5,1.54,8,8,0,0,1,2.85,4.49,14.41,14.41,0,0,1,1.58-2q3.84-4.36,11.07-4.37a19.29,19.29,0,0,1,3.55.38,8.22,8.22,0,0,1,3.5,1.54,8.46,8.46,0,0,1,2.41,3.27,10.07,10.07,0,0,1,.79,4.31q-.06,1.8,0,3c0,.79,0,1.39,0,1.77a5.59,5.59,0,0,0,.79,2.63,8.16,8.16,0,0,0,1.37,1.69,8.48,8.48,0,0,0,3,1.66,8.15,8.15,0,0,0,3.38.38,78.83,78.83,0,0,0,8-1.23q4.29-.87,8.92-2c3.08-.77,6.21-1.61,9.37-2.5s6.27-1.79,9.3-2.68Z"/><path d="M722.36,146.91q-4,1.16-8.28,2.06c-2.87.61-5.82,1.11-8.85,1.52s-6.08.72-9.15.93-6.12.32-9.15.32a39.53,39.53,0,0,1-12.17-1.57l-.38.47a3.79,3.79,0,0,1-.5.46,16,16,0,0,1-5.15,3.24,16.31,16.31,0,0,1-6,1.19,10.12,10.12,0,0,1-5.86-1.63,7.7,7.7,0,0,1-3.12-4.49,11.08,11.08,0,0,1-.14-5.21,13.92,13.92,0,0,1,2.24-5,8.19,8.19,0,0,1,1.08-1.23,15,15,0,0,1,1.46-1.22,16.51,16.51,0,0,1,1.57-1.05,15.88,15.88,0,0,1,1.43-.76q-6.18.65-12.3,1.78t-12.15,2.62q-6,1.48-11.94,3.18t-11.62,3.38l-3.67,1-.76-2.39,1.89-.56,1.84-.55q6.69-2,13.25-3.85t13.23-3.37q6.68-1.51,13.69-2.54a140.18,140.18,0,0,1,14.65-1.31h1a9.83,9.83,0,0,1,6.35,1.92,7.47,7.47,0,0,1,2.3,2.92,10.61,10.61,0,0,1,.91,3.84,11.1,11.1,0,0,1-.35,3.58,13.85,13.85,0,0,1-1.4,3.41,41.5,41.5,0,0,0,10.6,1.17q4.44,0,9-.32t9-.91c3-.38,5.84-.87,8.68-1.45s5.54-1.26,8.1-2Zm-59.66,6a14.09,14.09,0,0,0,9.43-3.73.05.05,0,0,0,.06-.06q-5.7-2.85-5.71-8.51a6.22,6.22,0,0,1,.32-2,6,6,0,0,1,.94-1.75,4.57,4.57,0,0,1,1.48-1.25,4,4,0,0,1,1.92-.46,13,13,0,0,0-1.54-.27,10.27,10.27,0,0,0-1.08-.08,11.68,11.68,0,0,0-5.53,1.34,17.9,17.9,0,0,0-2.28,1.54,14.52,14.52,0,0,0-2.62,2.68,12.24,12.24,0,0,0-1.89,3.73,8.06,8.06,0,0,0,0,4.57,4.7,4.7,0,0,0,1.2,2.25,6,6,0,0,0,1.83,1.28,7,7,0,0,0,1.92.55A12.7,12.7,0,0,0,662.7,152.91Zm6.35-12.3c0,2.88,1.61,5,4.83,6.47a9.84,9.84,0,0,0,1.69-5.94,7.41,7.41,0,0,0-.38-2.1,6.84,6.84,0,0,0-.84-1.69,3.45,3.45,0,0,0-1.31-.67,2.56,2.56,0,0,0-1.95.15,4,4,0,0,0-1.37,1.22A4.14,4.14,0,0,0,669.05,140.61Z"/><path d="M858.29,147q-4.6,1.35-9.41,2.71t-9.47,2.54q-4.67,1.17-9.06,2t-8.13,1.28h-1a11.07,11.07,0,0,1-3.84-.7,10.64,10.64,0,0,1-3.38-2,8.23,8.23,0,0,1-3.09-6.12q0-.58,0-1.83t0-3.12a7.79,7.79,0,0,0-.52-3.18,5.39,5.39,0,0,0-1.75-2.3q-1.7-1.4-5.42-1.4h-.06a14,14,0,0,0-5.45.94,10.49,10.49,0,0,0-3.64,2.5,13.84,13.84,0,0,0-2.42,3.67A38.79,38.79,0,0,0,790,146.5c-.24.81-.5,1.65-.79,2.5s-.58,1.66-.88,2.42-.56,1.44-.81,2-.46,1.06-.61,1.37l-2.28-1.05c.28-.58.63-1.42,1-2.5s.85-2.24,1.26-3.44.75-2.36,1.05-3.47a10.87,10.87,0,0,0,.43-2.59,7.63,7.63,0,0,0-.52-3.18,5.31,5.31,0,0,0-1.75-2.3,6.26,6.26,0,0,0-2.33-1.13,9.31,9.31,0,0,0-3.09-.27,142.8,142.8,0,0,0-14.54,1.31q-7,1-13.75,2.51t-13.28,3.35q-6.55,1.86-13.26,3.85c-.58.19-1.16.36-1.74.52s-1.15.33-1.69.52l-.76-2.44c.58-.2,1.17-.37,1.75-.53l1.75-.46q6.75-2,13.37-3.88t13.4-3.41q6.78-1.52,13.89-2.56a138.37,138.37,0,0,1,14.8-1.34,11.82,11.82,0,0,1,3.94.41,9.11,9.11,0,0,1,3.11,1.51,8,8,0,0,1,2.86,4.49,14.38,14.38,0,0,1,1.57-2q4-4.43,11.07-4.43h.06a17.48,17.48,0,0,1,3.52.41,8.46,8.46,0,0,1,3.47,1.57,8.24,8.24,0,0,1,2.48,3.27,10.21,10.21,0,0,1,.78,4.31q-.11,3.61,0,4.77a5.07,5.07,0,0,0,.76,2.63,9.31,9.31,0,0,0,1.4,1.69,8.48,8.48,0,0,0,3,1.66,8,8,0,0,0,3.32.38,79.78,79.78,0,0,0,8-1.23q4.32-.87,9-2c3.09-.77,6.22-1.61,9.41-2.5s6.29-1.79,9.32-2.68Z"/></svg>